#N canvas 260 256 979 614 12;
#X obj 132 247 *~;
#X obj 160 220 line~;
#X msg 187 186 0.1 100;
#X msg 119 185 0 100;
#X obj 189 161 bng 15 250 50 0 empty empty empty 17 7 0 10 -262144
-1 -1;
#X obj 118 159 bng 15 250 50 0 empty empty empty 17 7 0 10 -262144
-1 -1;
#X obj 282 203 *~ 0.25;
#X obj 38 214 *~ 0.5;
#X obj 373 203 *~ 0.175;
#X obj 232 416 output~;
#X obj 464 289 hsl 128 15 100 3000 0 0 empty empty Fc 13 -22 0 10 -262144
-1 -1 3850 1;
#X obj 29 125 phasor~ 400;
#X obj 319 126 phasor~ 800;
#X obj 432 126 phasor~ 1200;
#X obj 260 76 *~ 2;
#X obj 370 75 *~ 4;
#X obj 45 69 +~ 200;
#X obj 141 47 *~ 100;
#X obj 64 23 osc~ 0.1;
#X obj 387 327 bob~ 3;
#X connect 0 0 19 0;
#X connect 1 0 0 1;
#X connect 2 0 1 0;
#X connect 3 0 1 0;
#X connect 4 0 2 0;
#X connect 5 0 3 0;
#X connect 6 0 0 0;
#X connect 7 0 0 0;
#X connect 8 0 0 0;
#X connect 10 0 19 1;
#X connect 11 0 7 0;
#X connect 12 0 6 0;
#X connect 13 0 8 0;
#X connect 14 0 12 0;
#X connect 15 0 13 0;
#X connect 16 0 11 0;
#X connect 16 0 14 0;
#X connect 16 0 15 0;
#X connect 17 0 16 0;
#X connect 18 0 17 0;
#X connect 19 0 9 0;
#X connect 19 0 9 1;
